<svg width="500" height="500" viewBox="0 0 500 500" fill="none" xmlns="http://www.w3.org/2000/svg">
<rect width="500" height="500" fill="black"/>
<path d="M270.829 38.121C277.334 41.0335 281.741 44.7561 284.614 50.6586C285.979 55.1356 285.511 59.8706 285.401 64.4612C285.388 65.5275 285.374 66.5938 285.36 67.6924C285.326 70.3117 285.277 72.9302 285.215 75.5491C286.065 75.5455 286.065 75.5455 286.932 75.542C300.726 75.4857 314.521 75.4437 328.315 75.4171C334.986 75.404 341.657 75.3861 348.328 75.357C354.765 75.3288 361.202 75.3141 367.64 75.3075C370.096 75.3028 372.553 75.2936 375.009 75.2798C378.449 75.2614 381.888 75.2588 385.328 75.26C386.344 75.2508 387.36 75.2417 388.407 75.2322C394.651 75.2554 399.067 75.8427 403.973 79.4457C404.732 80.161 404.732 80.161 405.506 80.8907C406.077 81.4223 406.649 81.9539 407.237 82.5016C407.822 83.0609 408.406 83.6202 409.009 84.1965C409.622 84.7717 410.235 85.3469 410.867 85.9396C414.399 89.2623 417.897 92.6117 421.321 96.0171C423.318 97.9892 425.359 99.9253 427.401 101.863C430.047 104.374 432.676 106.896 435.266 109.449C438.051 112.189 440.892 114.882 443.75 117.566C447.769 121.348 451.767 125.134 455.64 129.025C456.289 129.645 456.938 130.264 457.607 130.902C458.245 131.543 458.884 132.184 459.542 132.845C460.123 133.414 460.704 133.983 461.303 134.569C463.111 137.546 463.366 140.22 462.576 143.455C460.926 145.641 459.495 147.233 457.436 149.079C456.906 149.581 456.376 150.083 455.829 150.6C454.134 152.195 452.412 153.768 450.686 155.339C449.547 156.395 448.409 157.451 447.272 158.509C445.084 160.539 442.887 162.561 440.681 164.577C437.894 167.129 435.192 169.736 432.526 172.382C430.515 174.362 428.464 176.309 426.41 178.257C423.764 180.769 421.136 183.29 418.546 185.844C401.646 202.447 401.646 202.447 397.181 203.722C395.634 203.798 394.084 203.826 392.535 203.824C391.58 203.826 390.626 203.827 389.642 203.828C388.597 203.825 387.551 203.822 386.474 203.819C384.821 203.819 384.821 203.819 383.134 203.819C379.483 203.818 375.832 203.812 372.181 203.805C369.653 203.804 367.125 203.802 364.596 203.802C358.617 203.799 352.637 203.792 346.658 203.783C339.85 203.774 333.043 203.769 326.235 203.765C312.231 203.756 298.228 203.741 284.224 203.722C284.224 212.686 284.224 221.65 284.224 230.885C287.555 230.871 290.886 230.858 294.317 230.844C305.32 230.802 316.322 230.774 327.324 230.753C333.995 230.74 340.666 230.722 347.337 230.693C353.774 230.665 360.212 230.65 366.649 230.643C369.106 230.639 371.562 230.629 374.018 230.616C377.458 230.597 380.897 230.595 384.337 230.596C385.861 230.582 385.861 230.582 387.417 230.568C392.741 230.588 396.567 230.825 401.144 233.431C405.074 237.071 406.218 239.717 406.244 244.607C406.255 245.969 406.255 245.969 406.265 247.358C406.268 248.355 406.271 249.351 406.274 250.377C406.28 251.426 406.287 252.475 406.293 253.556C406.313 257.037 406.324 260.518 406.334 263.999C406.338 265.199 406.342 266.399 406.346 267.599C406.365 273.238 406.379 278.877 406.388 284.516C406.397 291.016 406.423 297.517 406.464 304.017C406.493 309.047 406.508 314.077 406.511 319.106C406.514 322.108 406.523 325.109 406.548 328.11C406.575 331.463 406.571 334.815 406.564 338.168C406.583 339.649 406.583 339.649 406.602 341.16C406.559 346.963 405.761 350.722 402.135 355.663C398.41 358.754 394.634 359.165 389.594 359.16C388.671 359.161 387.749 359.162 386.798 359.164C385.793 359.161 384.788 359.158 383.753 359.154C382.157 359.155 382.157 359.155 380.53 359.155C377.013 359.154 373.496 359.148 369.979 359.141C367.541 359.139 365.103 359.138 362.665 359.137C356.247 359.134 349.829 359.126 343.411 359.116C335.711 359.106 328.011 359.102 320.311 359.097C308.613 359.089 296.914 359.073 285.215 359.058C285.215 382.027 285.215 404.997 285.215 428.662C294.698 428.662 304.18 428.662 313.95 428.662C321.627 434.143 321.627 434.143 322.101 438.245C322.091 438.939 322.081 439.632 322.07 440.347C322.064 441.102 322.057 441.857 322.051 442.635C322.034 443.416 322.017 444.197 322 445.002C321.991 445.796 321.982 446.591 321.973 447.409C321.95 449.366 321.917 451.322 321.877 453.278C322.915 453.249 323.953 453.219 325.023 453.189C326.389 453.165 327.756 453.142 329.122 453.119C330.148 453.087 330.148 453.087 331.195 453.054C336.246 452.992 336.246 452.992 338.713 454.425C339.712 455.825 339.712 455.825 339.526 458C338.721 460.069 338.721 460.069 336.739 461.766C334.195 461.98 334.195 461.98 330.909 461.982C329.046 461.989 329.046 461.989 327.145 461.996C325.761 461.993 324.377 461.99 322.993 461.986C321.542 461.988 320.09 461.991 318.638 461.995C314.689 462.003 310.741 462 306.792 461.994C302.665 461.99 298.539 461.994 294.413 461.997C287.482 462 280.552 461.996 273.622 461.988C265.601 461.978 257.581 461.981 249.561 461.991C242.683 461.999 235.806 462 228.928 461.995C224.817 461.993 220.705 461.992 216.594 461.998C212.729 462.003 208.865 461.999 205 461.989C203.579 461.987 202.158 461.988 200.736 461.992C198.802 461.996 196.868 461.989 194.933 461.982C193.307 461.981 193.307 461.981 191.648 461.98C189.104 461.766 189.104 461.766 187.122 460.069C186.874 457.522 186.874 457.522 187.122 454.976C189.104 453.278 189.104 453.278 192.765 453.112C194.228 453.124 195.691 453.144 197.154 453.172C197.901 453.18 198.649 453.187 199.418 453.195C201.265 453.215 203.111 453.246 204.957 453.278C204.936 452.765 204.916 452.251 204.894 451.723C204.811 449.376 204.76 447.031 204.709 444.684C204.676 443.876 204.643 443.069 204.609 442.237C204.528 437.264 204.894 434.243 208.92 430.36C218.006 425.171 230.699 428.662 241.618 428.662C241.618 405.693 241.618 382.723 241.618 359.058C226.808 359.117 226.808 359.117 211.699 359.177C205.45 359.195 199.2 359.211 192.951 359.224C183.028 359.244 173.106 359.268 163.183 359.314C155.956 359.348 148.73 359.37 141.504 359.377C137.678 359.382 133.852 359.392 130.026 359.417C126.423 359.44 122.821 359.447 119.218 359.442C117.269 359.443 115.32 359.462 113.371 359.48C106.958 359.455 102.783 359.438 97.946 355.663C97.3342 355.203 96.7224 354.744 96.092 354.27C92.5884 351.186 89.2211 348.029 85.9398 344.771C83.8604 342.719 81.7414 340.702 79.6154 338.686C76.9694 336.175 74.3412 333.653 71.7506 331.1C68.9656 328.36 66.1243 325.667 63.2665 322.983C59.8472 319.771 56.4682 316.536 53.1491 313.248C51.8233 311.958 50.472 310.688 49.1083 309.428C39.0746 300.132 39.0746 300.132 38 294.494C39.0591 289.164 44.0067 285.295 48.2181 281.496C49.2845 280.521 50.3502 279.545 51.4151 278.568C52.1781 277.87 52.1781 277.87 52.9565 277.158C55.2293 275.06 57.4145 272.9 59.6012 270.737C63.8359 266.575 68.1902 262.503 72.5092 258.405C75.8929 255.191 79.2685 251.973 82.5879 248.71C100.538 231.08 100.538 231.08 105.432 230.676C106.453 230.678 107.473 230.679 108.524 230.681C109.695 230.678 110.867 230.676 112.073 230.674C113.36 230.68 114.646 230.686 115.972 230.692C117.339 230.693 118.706 230.692 120.073 230.691C123.786 230.691 127.499 230.701 131.213 230.713C135.093 230.723 138.973 230.724 142.853 230.726C150.201 230.732 157.549 230.746 164.897 230.763C173.262 230.782 181.627 230.791 189.992 230.799C207.201 230.817 224.41 230.848 241.618 230.885C241.618 222.201 241.618 213.518 241.618 204.571C237.567 204.584 233.516 204.598 229.343 204.612C215.967 204.654 202.592 204.682 189.217 204.703C181.106 204.716 172.996 204.734 164.885 204.763C157.816 204.789 150.746 204.805 143.676 204.811C139.934 204.814 136.191 204.822 132.448 204.84C128.923 204.858 125.399 204.863 121.874 204.859C119.968 204.86 118.061 204.874 116.155 204.888C109.517 204.868 104.426 204.766 99.2891 200.751C95.9068 197.03 94.8524 194.616 94.8276 189.962C94.8206 189.046 94.8135 188.129 94.8062 187.185C94.8035 186.18 94.8008 185.175 94.7981 184.139C94.7883 182.55 94.7883 182.55 94.7784 180.93C94.7588 177.418 94.7472 173.905 94.7374 170.392C94.7334 169.182 94.7293 167.972 94.7251 166.761C94.7063 161.074 94.6922 155.386 94.6839 149.699C94.6742 143.14 94.6482 136.581 94.6081 130.021C94.5782 124.948 94.5635 119.874 94.5603 114.801C94.5579 111.772 94.5491 108.744 94.5241 105.715C94.4967 102.334 94.5009 98.9533 94.5078 95.572C94.4951 94.5735 94.4824 93.5749 94.4693 92.5461C94.5106 86.9973 94.7849 83.3211 98.9368 78.9444C105.074 74.5981 111.428 75.0881 119.121 75.1636C120.46 75.1646 121.798 75.164 123.136 75.1621C126.753 75.1611 130.37 75.181 133.987 75.2048C137.773 75.2261 141.559 75.228 145.345 75.2321C152.507 75.2426 159.669 75.2704 166.831 75.3045C174.988 75.3425 183.144 75.3612 191.301 75.3782C208.074 75.4137 224.846 75.4733 241.618 75.5491C241.587 74.8478 241.556 74.1466 241.524 73.4241C241.422 70.7822 241.348 68.1411 241.292 65.4982C241.248 63.8081 241.172 62.1186 241.096 60.4293C240.968 53.2106 241.896 48.0005 247.563 42.4447C254.373 37.8045 262.307 35.4539 270.829 38.121ZM104.882 85.735C104.578 87.7005 104.578 87.7005 104.624 90.0146C104.617 90.9203 104.61 91.826 104.602 92.7592C104.605 93.7571 104.607 94.755 104.61 95.7832C104.605 96.8308 104.6 97.8784 104.594 98.9577C104.583 101.836 104.581 104.714 104.583 107.592C104.584 109.992 104.579 112.393 104.575 114.793C104.564 120.456 104.563 126.118 104.569 131.781C104.575 137.627 104.563 143.472 104.542 149.318C104.524 154.333 104.518 159.349 104.522 164.364C104.523 167.361 104.521 170.358 104.507 173.355C104.492 176.696 104.501 180.037 104.513 183.378C104.505 184.375 104.498 185.371 104.49 186.397C104.497 187.305 104.504 188.213 104.511 189.149C104.511 189.939 104.511 190.73 104.511 191.544C104.966 193.988 105.594 194.583 107.854 196.083C110.11 196.475 110.11 196.475 112.672 196.429C113.671 196.442 114.67 196.454 115.699 196.467C117.35 196.468 117.35 196.468 119.034 196.469C120.784 196.485 120.784 196.485 122.57 196.501C125.814 196.528 129.059 196.543 132.304 196.553C135.801 196.566 139.299 196.594 142.796 196.619C151.248 196.678 159.7 196.711 168.151 196.741C171.336 196.752 174.52 196.765 177.704 196.778C191.745 196.834 205.785 196.881 219.826 196.908C223.264 196.914 226.701 196.921 230.138 196.928C231.419 196.93 231.419 196.93 232.727 196.933C246.552 196.961 260.376 197.039 274.2 197.138C288.401 197.238 302.601 197.293 316.803 197.305C324.773 197.312 332.743 197.339 340.713 197.417C347.505 197.483 354.294 197.508 361.086 197.481C364.549 197.469 368.008 197.475 371.47 197.534C386.391 198.25 386.391 198.25 399.64 193.471C402.507 191.065 404.849 188.468 407.02 185.583C408.417 183.76 410.067 182.188 411.796 180.592C412.314 180.077 412.833 179.563 413.367 179.033C417.584 174.878 421.932 170.819 426.24 166.732C429.604 163.536 432.961 160.337 436.257 157.09C439.922 153.48 443.7 149.96 447.481 146.44C448.212 145.735 448.943 145.03 449.695 144.304C450.607 143.431 450.607 143.431 451.538 142.54C452.877 140.988 452.877 140.988 452.423 139.289C451.566 137.249 450.542 136.192 448.79 134.636C447.909 133.842 447.909 133.842 447.01 133.033C446.384 132.481 445.758 131.929 445.113 131.36C443.835 130.211 442.557 129.061 441.281 127.911C440.367 127.092 440.367 127.092 439.436 126.257C437.064 124.11 434.807 121.888 432.557 119.648C430.38 117.51 428.148 115.418 425.915 113.322C422.491 110.105 419.113 106.862 415.778 103.577C412.265 100.142 408.679 96.7643 405.107 93.3745C402.712 91.0924 400.318 88.81 397.924 86.5275C396.001 84.4195 396.001 84.4195 393.229 83.93C392.355 83.9294 391.48 83.9288 390.579 83.9282C389.574 83.9254 388.569 83.9227 387.534 83.9199C385.857 83.9218 385.857 83.9218 384.147 83.9239C382.381 83.921 382.381 83.921 380.58 83.918C377.299 83.9136 374.018 83.913 370.736 83.914C367.203 83.9141 363.67 83.9094 360.137 83.9054C353.209 83.8984 346.281 83.896 339.354 83.8956C333.726 83.8952 328.097 83.8934 322.469 83.8907C306.529 83.8832 290.589 83.8793 274.649 83.88C273.789 83.88 272.929 83.88 272.043 83.8801C271.182 83.8801 270.32 83.8801 269.433 83.8802C255.47 83.8805 241.506 83.8724 227.543 83.8604C213.223 83.8483 198.902 83.8424 184.581 83.8431C176.535 83.8434 168.488 83.841 160.441 83.8319C153.591 83.8242 146.741 83.8223 139.89 83.8281C136.392 83.8309 132.895 83.8309 129.397 83.8236C125.612 83.8157 121.827 83.8209 118.042 83.8275C116.368 83.8209 116.368 83.8209 114.661 83.8143C113.15 83.8201 113.15 83.8201 111.608 83.8261C110.733 83.8259 109.858 83.8257 108.957 83.8255C106.648 83.8714 106.648 83.8714 104.882 85.735ZM101.909 242.768C101.329 243.255 100.75 243.742 100.152 244.244C96.5626 247.267 93.1904 250.396 89.9031 253.661C87.8238 255.712 85.7047 257.729 83.5788 259.745C80.9327 262.256 78.3045 264.778 75.714 267.331C72.929 270.072 70.0877 272.764 67.2299 275.448C63.2086 279.227 59.2524 283.047 55.3398 286.908C54.0398 288.181 52.7393 289.454 51.4383 290.727C50.8572 291.296 50.276 291.865 49.6772 292.451C49.257 292.863 48.8368 293.274 48.4039 293.698C49.8948 298.182 53.323 300.895 57.0118 304.149C58.2809 305.29 59.5491 306.432 60.8165 307.575C61.4192 308.115 62.0219 308.656 62.6429 309.213C65.0087 311.355 67.2605 313.573 69.5057 315.808C71.6824 317.946 73.915 320.038 76.1475 322.134C79.5487 325.329 82.9006 328.552 86.2107 331.816C89.271 334.793 92.4062 337.712 95.527 340.642C98.2608 343.228 100.948 345.845 103.616 348.481C104.345 349.195 105.09 349.899 105.873 350.57C107.41 350.654 108.952 350.678 110.492 350.679C111.497 350.682 112.502 350.684 113.538 350.687C115.215 350.685 115.215 350.685 116.925 350.683C118.69 350.686 118.69 350.686 120.491 350.689C123.773 350.694 127.054 350.694 130.335 350.693C133.869 350.693 137.402 350.698 140.935 350.702C147.863 350.709 154.79 350.711 161.718 350.712C167.346 350.712 172.974 350.714 178.603 350.716C194.542 350.724 210.482 350.728 226.422 350.727C227.712 350.727 227.712 350.727 229.029 350.727C229.89 350.727 230.751 350.727 231.639 350.727C245.602 350.727 259.565 350.735 273.529 350.747C287.849 350.759 302.17 350.765 316.49 350.764C324.537 350.764 332.584 350.766 340.63 350.775C347.481 350.783 354.331 350.785 361.181 350.779C364.679 350.776 368.177 350.776 371.675 350.784C375.46 350.791 379.245 350.786 383.03 350.78C384.703 350.786 384.703 350.786 386.41 350.793C387.418 350.789 388.426 350.785 389.464 350.781C390.339 350.781 391.213 350.781 392.114 350.782C394.423 350.736 394.423 350.736 396.19 348.872C396.494 346.907 396.494 346.907 396.448 344.593C396.455 343.687 396.462 342.781 396.469 341.848C396.466 340.351 396.466 340.351 396.462 338.824C396.467 337.776 396.472 336.729 396.477 335.649C396.489 332.771 396.491 329.894 396.489 327.016C396.487 324.615 396.492 322.214 396.497 319.814C396.508 314.151 396.509 308.489 396.503 302.826C396.497 296.98 396.509 291.135 396.53 285.289C396.547 280.274 396.553 275.259 396.55 270.243C396.548 267.246 396.551 264.25 396.565 261.252C396.579 257.911 396.57 254.57 396.559 251.229C396.566 250.233 396.574 249.236 396.582 248.21C396.575 247.302 396.568 246.394 396.561 245.458C396.561 244.668 396.561 243.877 396.561 243.063C396.106 240.619 395.479 240.023 393.217 238.524C390.958 238.141 390.958 238.141 388.393 238.199C387.393 238.191 386.392 238.184 385.362 238.176C384.26 238.18 383.158 238.185 382.022 238.19C380.269 238.182 380.269 238.182 378.481 238.174C375.233 238.162 371.984 238.162 368.736 238.167C365.234 238.169 361.733 238.156 358.231 238.146C351.369 238.128 344.507 238.124 337.645 238.126C332.068 238.127 326.492 238.124 320.915 238.117C319.31 238.116 317.705 238.114 316.1 238.112C315.302 238.111 314.503 238.11 313.68 238.109C298.565 238.093 283.45 238.094 268.336 238.1C254.502 238.105 240.67 238.087 226.836 238.059C212.64 238.03 198.444 238.017 184.247 238.021C176.274 238.023 168.301 238.019 160.328 237.998C153.54 237.98 146.752 237.977 139.964 237.993C136.499 238.001 133.035 238.002 129.571 237.984C125.817 237.969 122.064 237.979 118.31 237.997C117.213 237.986 116.115 237.976 114.984 237.965C108.876 238.025 105.754 238.288 101.909 242.768Z" fill="white"/>
<path d="M122.796 267.168C123.647 267.164 124.498 267.159 125.375 267.153C126.316 267.157 127.257 267.16 128.226 267.163C129.718 267.158 129.718 267.158 131.241 267.153C134.596 267.145 137.951 267.148 141.307 267.151C143.704 267.148 146.101 267.143 148.497 267.138C154.345 267.128 160.193 267.126 166.04 267.128C170.792 267.129 175.543 267.128 180.295 267.124C180.97 267.124 181.645 267.123 182.341 267.123C183.713 267.122 185.085 267.121 186.457 267.12C199.332 267.11 212.208 267.112 225.083 267.117C236.871 267.122 248.658 267.112 260.445 267.096C272.539 267.08 284.632 267.073 296.726 267.076C303.52 267.077 310.313 267.075 317.106 267.063C323.493 267.052 329.88 267.054 336.266 267.065C338.615 267.067 340.964 267.065 343.313 267.058C346.51 267.049 349.707 267.056 352.903 267.067C353.842 267.061 354.78 267.054 355.747 267.048C357.028 267.057 357.028 267.057 358.334 267.066C359.442 267.066 359.442 267.066 360.571 267.066C363.06 267.477 363.969 268.209 365.474 269.931C365.231 272.768 364.874 273.84 362.501 275.873C360.696 276.087 360.696 276.087 358.459 276.089C357.608 276.094 356.757 276.099 355.88 276.104C354.939 276.101 353.998 276.097 353.029 276.094C352.034 276.097 351.039 276.101 350.014 276.104C346.659 276.113 343.304 276.109 339.948 276.106C337.551 276.11 335.154 276.114 332.757 276.119C326.91 276.129 321.062 276.131 315.215 276.129C310.463 276.128 305.712 276.129 300.96 276.133C300.285 276.133 299.609 276.134 298.914 276.135C297.542 276.136 296.17 276.137 294.798 276.138C281.923 276.147 269.047 276.145 256.172 276.14C244.384 276.135 232.597 276.145 220.81 276.161C208.716 276.178 196.623 276.185 184.529 276.181C177.735 276.18 170.942 276.182 164.149 276.194C157.762 276.205 151.375 276.203 144.989 276.192C142.64 276.19 140.291 276.192 137.942 276.199C134.745 276.208 131.548 276.201 128.351 276.19C127.413 276.197 126.475 276.203 125.508 276.209C124.227 276.2 124.227 276.2 122.921 276.191C121.813 276.191 121.813 276.191 120.684 276.191C118.195 275.781 117.286 275.048 115.781 273.326C116.154 268.959 117.664 267.174 122.796 267.168Z" fill="white"/>
<path d="M144.099 112.776C145.52 112.777 145.52 112.777 146.97 112.778C148.467 112.774 148.467 112.774 149.995 112.77C153.367 112.763 156.739 112.762 160.111 112.76C162.518 112.756 164.924 112.752 167.331 112.748C173.888 112.736 180.445 112.731 187.002 112.727C191.094 112.725 195.185 112.721 199.277 112.717C210.597 112.707 221.917 112.698 233.237 112.695C233.962 112.695 234.687 112.695 235.434 112.695C236.161 112.695 236.887 112.695 237.636 112.694C239.109 112.694 240.582 112.694 242.055 112.693C242.785 112.693 243.516 112.693 244.269 112.693C256.11 112.689 267.952 112.674 279.794 112.655C291.941 112.635 304.089 112.624 316.236 112.623C323.061 112.622 329.885 112.617 336.71 112.602C343.126 112.588 349.543 112.586 355.959 112.594C358.32 112.594 360.68 112.59 363.04 112.582C366.252 112.571 369.464 112.576 372.676 112.585C374.09 112.575 374.09 112.575 375.533 112.564C376.391 112.57 377.249 112.576 378.133 112.581C378.875 112.581 379.616 112.58 380.381 112.58C382.877 112.989 383.788 113.712 385.291 115.444C384.873 119.196 384.873 119.196 383.309 120.537C380.157 120.624 377.027 120.654 373.874 120.65C372.871 120.652 371.868 120.654 370.835 120.656C367.447 120.661 364.059 120.661 360.671 120.66C358.253 120.662 355.835 120.665 353.417 120.669C347.515 120.675 341.612 120.678 335.71 120.678C330.915 120.679 326.119 120.681 321.324 120.683C307.741 120.691 294.159 120.695 280.577 120.694C279.844 120.694 279.111 120.694 278.356 120.694C277.622 120.694 276.889 120.694 276.133 120.694C264.236 120.693 252.339 120.702 240.442 120.714C228.24 120.726 216.037 120.732 203.835 120.731C196.979 120.731 190.123 120.733 183.267 120.742C176.822 120.751 170.377 120.75 163.932 120.744C161.56 120.743 159.188 120.745 156.816 120.75C153.591 120.757 150.366 120.753 147.14 120.746C145.716 120.753 145.716 120.753 144.263 120.76C143.403 120.756 142.544 120.752 141.659 120.748C140.913 120.748 140.168 120.748 139.4 120.748C137.58 120.537 137.58 120.537 135.598 118.839C136.317 112.802 137.152 112.802 144.099 112.776Z" fill="white"/>
<path d="M214.865 437.15C246.909 437.15 278.953 437.15 311.968 437.15C311.968 442.473 311.968 447.795 311.968 453.278C279.924 453.278 247.88 453.278 214.865 453.278C214.865 447.956 214.865 442.634 214.865 437.15Z" fill="black"/>
<path d="M217.829 309.605C219.094 309.599 220.36 309.593 221.664 309.587C223.075 309.589 224.485 309.591 225.896 309.593C227.375 309.589 228.854 309.585 230.334 309.58C234.358 309.569 238.383 309.568 242.408 309.57C245.764 309.571 249.121 309.567 252.477 309.563C260.393 309.554 268.309 309.553 276.226 309.558C284.4 309.563 292.575 309.553 300.75 309.535C307.761 309.52 314.772 309.515 321.783 309.518C325.974 309.519 330.164 309.517 334.355 309.505C338.296 309.494 342.236 309.496 346.176 309.507C347.624 309.509 349.072 309.507 350.52 309.5C352.493 309.491 354.466 309.499 356.439 309.509C358.097 309.508 358.097 309.508 359.789 309.508C362.501 309.826 362.501 309.826 364.378 310.983C365.473 312.373 365.473 312.373 365.288 314.548C364.483 316.617 364.483 316.617 362.501 318.315C359.913 318.531 359.913 318.531 356.565 318.536C354.666 318.545 354.666 318.545 352.73 318.554C351.319 318.552 349.908 318.55 348.498 318.548C347.018 318.551 345.539 318.556 344.06 318.561C340.035 318.572 336.01 318.573 331.986 318.571C328.629 318.57 325.273 318.574 321.917 318.578C314 318.587 306.084 318.588 298.168 318.583C289.993 318.577 281.819 318.588 273.644 318.606C266.633 318.621 259.622 318.626 252.61 318.623C248.42 318.622 244.229 318.624 240.038 318.636C236.098 318.646 232.158 318.645 228.218 318.634C226.77 318.632 225.322 318.634 223.874 318.641C221.901 318.65 219.928 318.641 217.955 318.632C216.297 318.632 216.297 318.632 214.605 318.633C211.893 318.315 211.893 318.315 210.016 317.157C208.92 315.768 208.92 315.768 209.106 313.593C210.744 309.384 213.1 309.612 217.829 309.605Z" fill="white"/>
<path d="M143.598 155.124C145.523 155.117 145.523 155.117 147.488 155.109C148.919 155.113 150.35 155.116 151.781 155.12C153.281 155.117 154.781 155.114 156.282 155.111C160.364 155.103 164.446 155.106 168.528 155.111C172.793 155.116 177.058 155.112 181.323 155.109C188.487 155.106 195.65 155.11 202.814 155.118C211.104 155.127 219.395 155.124 227.686 155.115C234.794 155.107 241.903 155.106 249.012 155.111C253.262 155.113 257.512 155.114 261.762 155.108C265.756 155.103 269.751 155.106 273.746 155.116C275.215 155.118 276.684 155.118 278.153 155.114C280.153 155.109 282.152 155.116 284.152 155.124C285.833 155.125 285.833 155.125 287.548 155.126C290.17 155.339 290.17 155.339 292.151 157.037C291.588 161.763 291.588 161.763 290.17 162.979C288.205 163.065 286.238 163.09 284.271 163.092C282.989 163.096 281.706 163.1 280.385 163.103C278.95 163.103 277.516 163.103 276.081 163.102C274.581 163.105 273.081 163.108 271.581 163.111C267.494 163.118 263.408 163.12 259.322 163.121C255.917 163.122 252.511 163.125 249.105 163.128C241.074 163.135 233.042 163.137 225.01 163.136C216.712 163.136 208.415 163.145 200.117 163.158C193.004 163.169 185.891 163.174 178.778 163.173C174.524 163.173 170.271 163.175 166.018 163.184C162.019 163.192 158.02 163.193 154.022 163.186C152.551 163.185 151.08 163.187 149.609 163.193C147.608 163.199 145.606 163.194 143.604 163.189C141.921 163.189 141.921 163.189 140.204 163.19C137.58 162.979 137.58 162.979 135.598 161.281C135.35 159.159 135.35 159.159 135.598 157.037C138.311 154.713 139.799 155.126 143.598 155.124Z" fill="white"/>
</svg>
